<mxfile host="app.diagrams.net" modified="2023-08-01T05:55:41.376Z" agent="Mozilla/5.0 (Windows NT 10.0; Win64; x64) AppleWebKit/537.36 (KHTML, like Gecko) Chrome/115.0.0.0 Safari/537.36 Edg/115.0.1901.188" etag="t70nx38KrjYdkTsT8ecC" version="21.6.6" type="github">
  <diagram id="C5RBs43oDa-KdzZeNtuy" name="Page-1">
    <mxGraphModel dx="1823" dy="581" grid="1" gridSize="10" guides="1" tooltips="1" connect="1" arrows="1" fold="1" page="1" pageScale="1" pageWidth="827" pageHeight="1169" math="0" shadow="0">
      <root>
        <mxCell id="WIyWlLk6GJQsqaUBKTNV-0" />
        <mxCell id="WIyWlLk6GJQsqaUBKTNV-1" parent="WIyWlLk6GJQsqaUBKTNV-0" />
        <mxCell id="kzOmDfbby_HWpefXXcO1-0" value="构建表型-罕见疾病数据库和表型-表型相似度网络" style="rounded=1;whiteSpace=wrap;html=1;" vertex="1" parent="WIyWlLk6GJQsqaUBKTNV-1">
          <mxGeometry x="-20" y="50" width="100" height="90" as="geometry" />
        </mxCell>
        <mxCell id="kzOmDfbby_HWpefXXcO1-2" value="出生后出现生长发育落后，3个月体检发现上眼睑下垂。运动发育自述未发现异常，评估为中度发育落后，脑电图未见异常，未见明显癫痫发作，牙齿发育不齐，缺牙。眉毛浓厚，轻度连眉，上睫毛长。耳位低，后璇耳。双手手指第五指弯曲。" style="rounded=1;whiteSpace=wrap;html=1;" vertex="1" parent="WIyWlLk6GJQsqaUBKTNV-1">
          <mxGeometry x="170" y="32.5" width="280" height="135" as="geometry" />
        </mxCell>
        <mxCell id="kzOmDfbby_HWpefXXcO1-4" value="&lt;p class=&quot;MsoNormal&quot;&gt;生后出现生长发育落后，上眼睑下垂，中度发育落后，牙齿发育不齐，缺牙，眉毛浓厚，轻度连眉，上睫毛长，耳位低，后璇耳，双手手指第五指弯曲&lt;/p&gt;" style="rounded=1;whiteSpace=wrap;html=1;" vertex="1" parent="WIyWlLk6GJQsqaUBKTNV-1">
          <mxGeometry x="540" y="27.5" width="180" height="140" as="geometry" />
        </mxCell>
        <mxCell id="kzOmDfbby_HWpefXXcO1-5" value="&lt;p class=&quot;MsoNormal&quot;&gt;&lt;font style=&quot;font-size: 12px;&quot;&gt;出生后生长迟缓，上睑下垂，中度产后发育迟缓，牙齿发育不全，缺牙症，眉毛浓密，连眉，长上睫毛，低位耳，后旋耳，&lt;font style=&quot;&quot;&gt;手指弯曲&lt;/font&gt;&lt;/font&gt;&lt;/p&gt;" style="rounded=1;whiteSpace=wrap;html=1;" vertex="1" parent="WIyWlLk6GJQsqaUBKTNV-1">
          <mxGeometry x="580" y="240" width="160" height="190" as="geometry" />
        </mxCell>
        <mxCell id="kzOmDfbby_HWpefXXcO1-6" value="&lt;p class=&quot;MsoNormal&quot;&gt;&lt;font style=&quot;font-size: 12px;&quot;&gt;Rubinstein-Taybi综合征1型，&amp;nbsp;Rubinstein-Taybi综合征2型，德朗热综合征1型，Coffin-Siris综合征1型，颅面畸形-骨骼异常伴智力障碍综合征，歌舞伎综合征1型，远端染色体19q13.11缺失综合征，Wiedemann-Steiner综合征，Desbuquois发育不良1型，&lt;font style=&quot;&quot;&gt;毛发&lt;/font&gt;&lt;font style=&quot;&quot;&gt;-&lt;/font&gt;&lt;font style=&quot;&quot;&gt;鼻&lt;/font&gt;&lt;font style=&quot;&quot;&gt;-&lt;/font&gt;&lt;font style=&quot;&quot;&gt;指&lt;/font&gt;&lt;font style=&quot;&quot;&gt;(&lt;/font&gt;&lt;font style=&quot;&quot;&gt;趾&lt;/font&gt;&lt;font style=&quot;&quot;&gt;)&lt;/font&gt;&lt;font style=&quot;&quot;&gt;综合征&lt;/font&gt;&lt;font style=&quot;&quot;&gt;2&lt;/font&gt;&lt;font style=&quot;&quot;&gt;型&lt;/font&gt;&lt;/font&gt;&lt;/p&gt;" style="rounded=1;whiteSpace=wrap;html=1;" vertex="1" parent="WIyWlLk6GJQsqaUBKTNV-1">
          <mxGeometry x="250" y="260" width="150" height="215" as="geometry" />
        </mxCell>
      </root>
    </mxGraphModel>
  </diagram>
</mxfile>
